Coordinates
version=1
nRows=14
nColumns=63
inDegrees=yes

Units are S.I. units (second, meters, Newtons, ...)
If the header above contains a line with 'inDegrees', this indicates whether rotational values are in degrees (yes) or radians (no).

endheader
time	pelvis_tilt	pelvis_list	pelvis_rotation	pelvis_tx	pelvis_ty	pelvis_tz	hip_flexion_r	hip_adduction_r	hip_rotation_r	knee_angle_r	knee_angle_r_beta	ankle_angle_r	subtalar_angle_r	mtp_angle_r	hip_flexion_l	hip_adduction_l	hip_rotation_l	knee_angle_l	knee_angle_l_beta	ankle_angle_l	subtalar_angle_l	mtp_angle_l	L5_S1_Flex_Ext	L5_S1_Lat_Bending	L5_S1_axial_rotation	L4_L5_Flex_Ext	L4_L5_Lat_Bending	L4_L5_axial_rotation	L3_L4_Flex_Ext	L3_L4_Lat_Bending	L3_L4_axial_rotation	L2_L3_Flex_Ext	L2_L3_Lat_Bending	L2_L3_axial_rotation	L1_L2_Flex_Ext	L1_L2_Lat_Bending	L1_L2_axial_rotation	L1_T12_Flex_Ext	L1_T12_Lat_Bending	L1_T12_axial_rotation	Abs_r3	Abs_r2	Abs_r1	Abs_t1	Abs_t2	neck_flexion	neck_bending	neck_rotation	arm_flex_r	arm_add_r	arm_rot_r	elbow_flex_r	pro_sup_r	wrist_flex_r	wrist_dev_r	arm_flex_l	arm_add_l	arm_rot_l	elbow_flex_l	pro_sup_l	wrist_flex_l	wrist_dev_l
0.000000	-0.226751	-5.918352	84.553698	0.214342	0.885778	0.655803	2.107831	-2.200750	-17.363118	8.621514	0.150474	27.386498	12.629977	0.000000	-2.123764	-2.634133	-3.132640	3.797065	0.066271	22.766706	-2.233758	0.000000	-0.040215	0.113530	1.214887	-0.074684	0.150995	1.290817	-0.066070	0.276037	1.290817	-0.045962	0.276037	1.063026	-0.037344	0.231510	0.987095	-0.022979	0.175858	0.911165	-0.287255	1.284273	6.756834	0.000000	0.000000	13.661542	0.993154	-3.144079	-2.115681	-11.904973	29.758721	74.704881	90.309361	24.420410	17.816560	3.158836	-10.825991	37.250313	72.369966	69.392615	19.997288	19.023516
0.016667	-0.613640	-5.945686	84.540917	0.214566	0.884709	0.655302	1.954867	-2.620276	-16.639781	8.744000	0.152612	27.257441	12.520806	0.000000	-1.932049	-2.255974	-3.518763	4.280117	0.074702	23.320707	-1.952142	0.000000	-0.016261	0.075028	1.074638	-0.030198	0.099787	1.141802	-0.026715	0.182423	1.141802	-0.018584	0.182423	0.940308	-0.015100	0.152997	0.873143	-0.009291	0.116218	0.805978	-0.116149	0.848731	5.976812	0.000000	0.000000	13.613696	0.916652	-2.429269	-1.535995	-11.652094	30.404161	74.452279	88.379680	24.181301	18.929216	2.579547	-11.271477	36.597297	73.159454	70.504278	19.884903	18.949635
0.033333	-0.935018	-5.968088	84.532072	0.214734	0.883827	0.654919	1.829061	-2.971720	-16.130898	8.855830	0.154563	27.150091	12.490565	0.000000	-1.803056	-1.937419	-3.750927	4.617273	0.080587	23.721749	-1.818447	0.000000	0.001979	0.042743	0.961399	0.003676	0.056848	1.021487	0.003252	0.103925	1.021487	0.002262	0.103925	0.841224	0.001838	0.087161	0.781137	0.001131	0.066209	0.721050	0.014139	0.483516	5.347015	0.000000	0.000000	13.611552	0.868622	-1.843305	-1.054540	-11.488442	31.010590	74.281655	87.167215	23.967525	19.718052	2.118491	-11.645806	36.083686	73.818331	71.228234	19.762171	18.900083
0.050000	-1.196366	-5.986113	84.526834	0.214852	0.883115	0.654642	1.728357	-3.260702	-15.815181	8.957995	0.156347	27.063255	12.530030	0.000000	-1.729594	-1.673660	-3.846084	4.824633	0.084206	23.986370	-1.816395	0.000000	0.015051	0.016168	0.873034	0.027952	0.021503	0.927598	0.024728	0.039310	0.927598	0.017202	0.039310	0.763904	0.013977	0.032969	0.709340	0.008600	0.025044	0.654775	0.107510	0.182891	4.855551	0.000000	0.000000	13.649755	0.846013	-1.376008	-0.666368	-11.400000	31.566619	74.182281	86.566089	23.775506	20.224670	1.766308	-11.954275	35.699314	74.355772	71.602599	19.626798	18.874939
0.066667	-1.403167	-6.000316	84.524872	0.214924	0.882557	0.654461	1.650699	-3.492841	-15.671343	9.051488	0.157978	26.995737	12.629976	0.000000	-1.704471	-1.459891	-3.821180	4.918296	0.085840	24.131109	-1.929709	0.000000	0.023501	-0.005205	0.807403	0.043643	-0.006923	0.857865	0.038609	-0.012656	0.857865	0.026859	-0.012656	0.706477	0.021823	-0.010614	0.656015	0.013428	-0.008063	0.605552	0.167863	-0.058882	4.490531	0.000000	0.000000	13.722951	0.845773	-1.017199	-0.366528	-11.372751	32.060853	74.143435	86.470421	23.601665	20.490669	1.513636	-12.202185	35.434021	74.780953	71.665493	19.476491	18.874278
0.083333	-1.560901	-6.011250	84.525857	0.214956	0.882135	0.654366	1.594031	-3.673757	-15.678097	9.137300	0.159476	26.946344	12.781181	0.000000	-1.720496	-1.291303	-3.693166	4.914363	0.085772	24.172503	-2.142113	0.000000	0.027874	-0.021883	0.762368	0.051765	-0.029104	0.810016	0.045794	-0.053206	0.810016	0.031857	-0.053206	0.667072	0.025884	-0.044623	0.619424	0.015927	-0.033896	0.571776	0.199102	-0.247542	4.240062	0.000000	0.000000	13.825784	0.864854	-0.756700	-0.150071	-11.392679	32.481903	74.154390	86.774336	23.442424	20.557648	1.351115	-12.394834	35.277640	75.103047	71.455034	19.308959	18.898179
0.100000	-1.675051	-6.019471	84.529458	0.214954	0.881833	0.654346	1.556298	-3.809071	-15.814156	9.216424	0.160857	26.913881	12.974419	0.000000	-1.770478	-1.163089	-3.478989	4.828935	0.084281	24.127091	-2.437329	0.000000	0.028718	-0.034372	0.735792	0.053332	-0.045715	0.781779	0.047180	-0.083573	0.781779	0.032821	-0.083573	0.643818	0.026667	-0.070092	0.597831	0.016409	-0.053243	0.551844	0.205127	-0.388826	4.092254	0.000000	0.000000	13.952899	0.900203	-0.584332	-0.012047	-11.445767	32.818375	74.204421	87.371952	23.294206	20.467206	1.269385	-12.537521	35.220010	75.331229	71.009340	19.121908	18.946719
0.116667	-1.751097	-6.025534	84.535346	0.214922	0.881635	0.654390	1.535443	-3.904403	-16.058233	9.289852	0.162139	26.897152	13.200467	0.000000	-1.847225	-1.070441	-3.195599	4.678110	0.081648	24.011410	-2.799080	0.000000	0.026577	-0.043181	0.725537	0.049357	-0.057431	0.770883	0.043664	-0.104991	0.770883	0.030375	-0.104991	0.634845	0.024680	-0.088055	0.589498	0.015186	-0.066888	0.544152	0.189839	-0.488474	4.035217	0.000000	0.000000	14.098940	0.948771	-0.489915	0.052493	-11.517998	33.058879	74.282804	88.157394	23.153432	20.260944	1.259084	-12.635545	35.250966	75.474675	70.366529	18.913047	19.019976
0.133333	-1.794521	-6.029993	84.543189	0.214867	0.881523	0.654488	1.529410	-3.965373	-16.389041	9.358576	0.163338	26.894965	13.450101	0.000000	-1.943547	-1.008553	-2.859944	4.477990	0.078156	23.842000	-3.211089	0.000000	0.022000	-0.048817	0.729464	0.040855	-0.064926	0.775055	0.036143	-0.118693	0.775055	0.025143	-0.118693	0.638281	0.020429	-0.099547	0.592689	0.012571	-0.075617	0.547098	0.157141	-0.552222	4.057058	0.000000	0.000000	14.258553	1.007507	-0.463271	0.048500	-11.595355	33.192022	74.378812	89.024781	23.016525	19.980460	1.310853	-12.694206	35.360346	75.542558	69.564720	18.680082	19.118026
0.150000	-1.810804	-6.033402	84.552659	0.214792	0.881480	0.654629	1.536144	-3.997599	-16.785292	9.423588	0.164473	26.906123	13.714097	0.000000	-2.052252	-0.972616	-2.488974	4.244674	0.074084	23.635397	-3.657080	0.000000	0.015530	-0.051786	0.745435	0.028841	-0.068875	0.792025	0.025515	-0.125912	0.792025	0.017750	-0.125912	0.652256	0.014421	-0.105601	0.605666	0.008874	-0.080216	0.559077	0.110931	-0.585811	4.145888	0.000000	0.000000	14.426382	1.073360	-0.494222	-0.019078	-11.663821	33.206413	74.481722	89.868236	22.879907	19.667353	1.415330	-12.718803	35.537985	75.544054	68.642030	18.420722	19.240947
0.166667	-1.805428	-6.036317	84.563424	0.214704	0.881491	0.654803	1.553589	-4.006704	-17.225700	9.485880	0.165560	26.929433	13.983230	0.000000	-2.166148	-0.957823	-2.099636	3.994263	0.069713	23.408139	-4.120774	0.000000	0.007716	-0.052596	0.771314	0.014329	-0.069953	0.819521	0.012676	-0.127882	0.819521	0.008818	-0.127882	0.674899	0.007165	-0.107254	0.626692	0.004409	-0.081471	0.578485	0.055114	-0.594976	4.289815	0.000000	0.000000	14.597072	1.143280	-0.572587	-0.145290	-11.709380	33.090660	74.580808	90.581879	22.739999	19.363224	1.563155	-12.714635	35.773720	75.488337	67.636579	18.132673	19.388817
0.183333	-1.797071	-6.058324	84.571669	0.214644	0.881480	0.654942	1.597730	-4.012293	-17.711840	9.548869	0.166659	26.980385	14.280709	0.000000	-2.250826	-0.948944	-1.751124	3.774620	0.065880	23.218443	-4.586107	0.000000	0.001989	-0.052276	0.791124	0.003694	-0.069527	0.840569	0.003268	-0.127103	0.840569	0.002273	-0.127103	0.692234	0.001847	-0.106600	0.642788	0.001136	-0.080975	0.593343	0.014206	-0.591352	4.399995	0.000000	0.000000	14.816540	1.220866	-0.570517	-0.316674	-11.623749	32.672295	74.669885	91.072826	22.916862	19.244846	1.656315	-12.714590	35.941119	75.482268	66.551142	17.806729	19.599265
0.200000	-1.780237	-6.069701	84.578919	0.214578	0.881483	0.655108	1.636724	-4.007528	-18.138263	9.620687	0.167913	27.047471	14.507374	0.000000	-2.328265	-0.949612	-1.461271	3.590645	0.062669	23.054964	-4.971284	0.000000	-0.003820	-0.051414	0.825552	-0.007094	-0.068380	0.877149	-0.006276	-0.125008	0.877149	-0.004366	-0.125008	0.722358	-0.003547	-0.104843	0.670761	-0.002183	-0.079640	0.619164	-0.027287	-0.581603	4.591474	0.000000	0.000000	14.989569	1.280054	-0.695887	-0.578438	-11.484355	32.047870	74.776711	90.674777	22.893934	19.318610	1.820348	-12.718220	36.241280	75.458984	65.513742	17.410380	19.846612
0.216667	-1.748519	-6.073539	84.589030	0.214486	0.881497	0.655281	1.669846	-3.991004	-18.549889	9.702346	0.169338	27.116764	14.734923	0.000000	-2.396110	-0.965229	-1.215126	3.440022	0.060040	22.927837	-5.290947	0.000000	-0.009611	-0.048929	0.870790	-0.017848	-0.065076	0.925214	-0.015790	-0.118966	0.925214	-0.010984	-0.118966	0.761941	-0.008925	-0.099776	0.707516	-0.005492	-0.075791	0.653092	-0.068649	-0.553495	4.843070	0.000000	0.000000	15.130148	1.336101	-0.908823	-0.928597	-11.262109	31.141900	74.857226	89.726134	22.935559	19.535048	2.026678	-12.693108	36.622918	75.386447	64.312343	16.958410	20.186876
